<svg xmlns="http://www.w3.org/2000/svg" xmlns:xlink="http://www.w3.org/1999/xlink" width="1080" zoomAndPan="magnify" viewBox="0 0 810 809.999993" height="1080" preserveAspectRatio="xMidYMid meet" version="1.0"><defs><clipPath id="a1c515f882"><path d="M 7.941406 425 L 176 425 L 176 594 L 7.941406 594 Z M 7.941406 425 " clip-rule="nonzero"/></clipPath><clipPath id="75878a39db"><path d="M 216 425 L 385 425 L 385 802.191406 L 216 802.191406 Z M 216 425 " clip-rule="nonzero"/></clipPath><clipPath id="1ae669c815"><path d="M 216 7.941406 L 385 7.941406 L 385 176 L 216 176 Z M 216 7.941406 " clip-rule="nonzero"/></clipPath><clipPath id="679d4867b5"><path d="M 7.941406 216 L 385 216 L 385 385 L 7.941406 385 Z M 7.941406 216 " clip-rule="nonzero"/></clipPath><clipPath id="7149f6aba8"><path d="M 634 216 L 802.191406 216 L 802.191406 385 L 634 385 Z M 634 216 " clip-rule="nonzero"/></clipPath><clipPath id="315e6c687c"><path d="M 425 7.941406 L 594 7.941406 L 594 385 L 425 385 Z M 425 7.941406 " clip-rule="nonzero"/></clipPath><clipPath id="a4d88b75c6"><path d="M 425 634 L 594 634 L 594 802.191406 L 425 802.191406 Z M 425 634 " clip-rule="nonzero"/></clipPath><clipPath id="c15de800d2"><path d="M 425 425 L 802.191406 425 L 802.191406 594 L 425 594 Z M 425 425 " clip-rule="nonzero"/></clipPath></defs><g clip-path="url(#a1c515f882)"><path fill="#31bfc8" d="M 175.132812 509.488281 C 175.132812 555.644531 137.710938 593.066406 91.554688 593.066406 C 45.363281 593.066406 7.941406 555.644531 7.941406 509.488281 C 7.941406 463.328125 45.363281 425.90625 91.519531 425.90625 L 175.101562 425.90625 L 175.101562 509.488281 Z M 175.132812 509.488281 " fill-opacity="1" fill-rule="nonzero"/></g><g clip-path="url(#75878a39db)"><path fill="#31bfc8" d="M 216.925781 509.488281 C 216.925781 463.328125 254.347656 425.90625 300.503906 425.90625 C 346.660156 425.90625 384.085938 463.328125 384.085938 509.488281 L 384.085938 718.46875 C 384.085938 764.628906 346.660156 802.050781 300.503906 802.050781 C 254.347656 802.050781 216.925781 764.628906 216.925781 718.46875 Z M 216.925781 509.488281 " fill-opacity="1" fill-rule="nonzero"/></g><g clip-path="url(#1ae669c815)"><path fill="#31bfc8" d="M 300.503906 175.132812 C 254.347656 175.132812 216.925781 137.710938 216.925781 91.554688 C 216.925781 45.363281 254.347656 7.941406 300.503906 7.941406 C 346.660156 7.941406 384.085938 45.363281 384.085938 91.519531 L 384.085938 175.101562 L 300.503906 175.101562 Z M 300.503906 175.132812 " fill-opacity="1" fill-rule="nonzero"/></g><g clip-path="url(#679d4867b5)"><path fill="#31bfc8" d="M 300.503906 216.925781 C 346.660156 216.925781 384.085938 254.347656 384.085938 300.503906 C 384.085938 346.660156 346.660156 384.085938 300.503906 384.085938 L 91.519531 384.085938 C 45.363281 384.085938 7.941406 346.660156 7.941406 300.503906 C 7.941406 254.347656 45.363281 216.925781 91.519531 216.925781 Z M 300.503906 216.925781 " fill-opacity="1" fill-rule="nonzero"/></g><g clip-path="url(#7149f6aba8)"><path fill="#31bfc8" d="M 634.859375 300.503906 C 634.859375 254.347656 672.28125 216.925781 718.4375 216.925781 C 764.628906 216.925781 802.050781 254.347656 802.050781 300.503906 C 802.050781 346.660156 764.628906 384.085938 718.46875 384.085938 L 634.890625 384.085938 L 634.890625 300.503906 Z M 634.859375 300.503906 " fill-opacity="1" fill-rule="nonzero"/></g><g clip-path="url(#315e6c687c)"><path fill="#31bfc8" d="M 593.066406 300.503906 C 593.066406 346.660156 555.644531 384.085938 509.488281 384.085938 C 463.328125 384.085938 425.90625 346.660156 425.90625 300.503906 L 425.90625 91.519531 C 425.90625 45.363281 463.328125 7.941406 509.488281 7.941406 C 555.644531 7.941406 593.066406 45.363281 593.066406 91.519531 Z M 593.066406 300.503906 " fill-opacity="1" fill-rule="nonzero"/></g><g clip-path="url(#a4d88b75c6)"><path fill="#31bfc8" d="M 509.488281 634.859375 C 555.644531 634.859375 593.066406 672.28125 593.066406 718.4375 C 593.066406 764.59375 555.644531 802.015625 509.488281 802.015625 C 463.328125 802.015625 425.90625 764.59375 425.90625 718.4375 L 425.90625 634.855469 L 509.488281 634.855469 Z M 509.488281 634.859375 " fill-opacity="1" fill-rule="nonzero"/></g><g clip-path="url(#c15de800d2)"><path fill="#31bfc8" d="M 509.488281 593.066406 C 463.328125 593.066406 425.90625 555.644531 425.90625 509.488281 C 425.90625 463.328125 463.328125 425.90625 509.488281 425.90625 L 718.46875 425.90625 C 764.628906 425.90625 802.050781 463.328125 802.050781 509.488281 C 802.050781 555.644531 764.628906 593.066406 718.46875 593.066406 Z M 509.488281 593.066406 " fill-opacity="1" fill-rule="nonzero"/></g></svg>